# xmcd
# 
# Track frame offsets:
#     150
#     15117
#     32088
#     50853
#     69078
#     90195
#     105162
#     119892
#     139059
#     152667
#     170796
#     186669
#     204120
#     218091
# 
# Disc length: 3129
# 
# Revision: 2
# Processed by: cddbd v1.5.2PL0 Copyright (c) Steve Scherf et al.
# Submitted via: fre:ac v1.0.17
# 
DISCID=b80c370e
DTITLE=Various Artist - O Boticário 21 Anos - Sertanejo
DYEAR=1998
DGENRE=Country
TTITLE0=Leandro e Leonardo - Entre Tapas e Beijos
TTITLE1=João Paulo e Daniel - Cuida de Mim
TTITLE2=Leandro e Leonardo - Desculpe Mas Eu Vou Chorar
TTITLE3=Chrystian e Ralf - É Só Dizer o Preco
TTITLE4=João Paulo e Daniel - Estou Apaixonado
TTITLE5=Leandro e Leonardo - Pense Em Mim
TTITLE6=Sérgio Reis - Estrada da Saudade
TTITLE7=Leandro e Leonardo - Eu Juro
TTITLE8=João Paulo e Daniel - Eu Quero Seu Amor Pra Mim
TTITLE9=Leandro e Leonardo - Festa de Rodeio
TTITLE10=Roberta Miranda - Chuva de Amor
TTITLE11=Gian e Giovani - Olha Amor
TTITLE12=Leandro e Leonardo - Nao Aprendi A Dizer Adeus
TTITLE13=Gian e Giovani - Sai Dessa Coração
EXTD=
EXTT0=
EXTT1=
EXTT2=
EXTT3=
EXTT4=
EXTT5=
EXTT6=
EXTT7=
EXTT8=
EXTT9=
EXTT10=
EXTT11=
EXTT12=
EXTT13=
PLAYORDER=
